<svg width="48" height="48" viewBox="0 0 48 48" fill="none" xmlns="http://www.w3.org/2000/svg">
<path d="M13.22 42.42L11.95 41.86C11.59 41.69 11.2 41.48 11.06 41.08L11.05 41.04C10.72 40.07 12.01 34.23 12.3 33.09L13.65 28.27C14.43 25.75 14.55 25.46 13.99 22.93L13.64 21.45C13.58 21.49 13.26 22.26 13.2 22.39L11.25 26.54C11.05 27 10.92 27.8 10.39 27.98L10.36 27.99C9.95 28.13 9.42 27.91 9.02 27.8C6.7 27.15 4.9 26.39 4.54 23.74C4.38 22.56 5.04 21.15 5.51 20.11L6.02 18.84C6.52 17.53 6.92 16.12 7.04 14.72L7.15 12.97C7.42 10.31 8.79 7.07 11.71 6.59C11.97 6.55 12.23 6.54 12.49 6.53L13.35 6.5C14.38 6.41 15.26 6.06 16.13 5.54C16.88 5.09 17.16 5.44 17.6 6.09L18.83 8C20.04 9.69 22.32 10.86 24.39 10.66C26.5 10.47 28.29 9.38 29.42 7.62L30.37 6.15C30.65 5.73 30.76 5.37 31.32 5.33L31.42 5.34C31.68 5.38 31.96 5.62 32.19 5.75C34.31 6.99 35.85 6.09 37.59 6.93C38.85 7.54 39.87 9.12 40.29 10.44L40.53 11.16C40.73 11.77 40.85 12.44 40.91 13.08C40.98 13.7 41 14.32 41.05 14.94L41.15 15.72C41.25 16.42 41.49 17.34 41.73 18L42.47 20.04C42.69 20.65 43.05 21.23 43.2 21.87L43.37 22.49C43.59 23.52 43.44 24.59 42.87 25.48C42.03 26.77 40.86 27.27 39.45 27.67L38.23 27.99C37.3 28.21 37.15 27.59 36.87 26.9L34.36 21.39C34.19 21.95 34.11 22.53 33.99 23.1C33.69 24.47 33.41 25.36 33.86 26.76L35.33 31.71C35.37 31.93 35.46 32.15 35.51 32.38L35.61 32.72C35.65 32.92 35.72 33.13 35.76 33.33L36.17 35.15C36.53 36.76 36.8 38.41 36.94 40.05C37.06 41.49 36.92 41.47 35.55 42.1L33.5 42.97C31.22 43.85 29.13 44.23 26.71 44.23L20.48 44.22C18.01 44.11 15.46 43.42 13.22 42.42ZM16.44 7.11C15.47 7.63 14.53 7.91 13.43 8.03C12.99 8.07 12.53 7.99 12.09 8.06C9.65 8.47 8.85 11.12 8.63 13.29L8.5 15.03C8.43 15.75 8.29 16.46 8.12 17.16L7.72 18.59C7.49 19.28 7.2 19.96 6.93 20.63L6.48 21.62C6 22.77 5.73 23.71 6.51 24.82C7.23 25.85 8.54 26.11 9.69 26.42C10.04 25.52 10.47 24.65 10.88 23.78L13.09 19.05C13.16 18.91 13.22 18.87 13.16 18.73L12.62 17.63C11.95 16.13 11.29 14.4 11.26 12.72C11.26 12.5 11.22 12.19 11.3 11.99L11.35 11.9C11.42 11.76 11.54 11.67 11.68 11.6L11.72 11.59C11.84 11.54 12.04 11.54 12.16 11.57L12.2 11.58C12.47 11.67 12.61 11.87 12.68 12.13L12.69 12.16C12.8 12.55 12.76 13.2 12.88 13.7L13.27 15.16C13.47 15.72 13.64 16.28 13.9 16.81C14.24 17.5 14.62 18.15 14.73 18.92L15.66 23.69C15.83 24.59 15.66 24.47 16.41 24.86C17.79 25.57 19.07 25.8 20.59 26.01L21.32 26.08C21.59 26.11 21.55 26.12 21.71 25.89C22.9 24.21 25.36 24.42 26.4 26.11C28.12 26.05 30.21 25.63 31.71 24.78L32 24.62C32.04 24.6 32.12 24.57 32.15 24.54C32.16 24.54 32.52 22.8 32.55 22.64L33.09 19.9C33.35 18.57 33.38 18.4 33.95 17.17L34.55 15.76C34.81 15.05 35.03 14.3 35.16 13.55L35.31 12.56C35.34 12.38 35.34 12.17 35.41 12C35.62 11.46 36.48 11.3 36.73 11.91L36.76 12C37.04 12.69 36.17 15.67 35.91 16.34L35.39 17.59C35.26 17.89 34.75 18.64 34.85 18.92L38.33 26.4C39.59 26.08 40.94 25.79 41.65 24.58C42.44 23.23 41.53 21.69 41.02 20.42L39.87 16.93C39.69 16.16 39.58 15.37 39.51 14.59L39.48 13.82C39.35 11.85 38.42 8.33 36.18 8.05C35.72 8 35.23 8.05 34.77 8.04C33.76 8.02 32.57 7.74 31.73 7.2C31.67 7.17 31.61 7.13 31.55 7.11L30.69 8.47C30.36 9 30.39 8.95 30.26 9.56C29.74 12.02 28.21 14.45 26.33 16.14L25.26 17.05C25.18 17.12 24.77 17.41 24.73 17.49C24.57 17.83 24.87 20.48 24.71 21.19C24.55 21.88 23.4 21.89 23.27 21.12C23.22 20.83 23.26 20.47 23.26 20.17L23.25 17.59C23.25 17.36 22.93 17.23 22.74 17.06L22.13 16.53C20.23 14.88 18.58 12.7 17.92 10.23L17.75 9.52C17.72 9.37 17.7 9.22 17.66 9.08C17.6 8.88 16.64 7.3 16.49 7.1L16.44 7.11ZM19.71 10.83C20.43 12.66 21.71 14.14 23.16 15.42L23.73 15.9C23.82 15.98 23.92 16.08 24.03 16.14C24.78 15.48 26.18 14.33 26.73 13.49C27.28 12.78 27.92 11.82 28.21 10.97C27.42 11.39 26.67 11.76 25.79 11.97L24.93 12.13C23.34 12.44 21.23 11.87 19.92 10.99L19.71 10.83ZM15.79 26.22L14.75 29.77C14.06 32.1 13.43 34.46 13 36.86L12.54 40.08C12.53 40.2 12.51 40.34 12.52 40.46C12.97 40.7 13.45 40.89 13.91 41.08L15.34 41.64C17.72 42.46 19.81 42.75 22.28 42.75L28.11 42.68C29.2 42.59 30.29 42.41 31.34 42.09L34.47 40.92L35.5 40.44L35.34 38.93L34.53 34.69L33.11 29.34C32.79 28.3 32.43 27.28 32.24 26.2C30.58 27.15 28.68 27.36 26.82 27.59C26.52 31.06 21.72 31.18 21.15 27.92C21.14 27.81 21.15 27.64 21.1 27.55C19.44 27.46 17.75 27.15 16.23 26.44C16.1 26.38 15.93 26.24 15.79 26.22ZM23.92 26.21C22.07 26.43 22.29 28.83 24.05 28.81L24.24 28.78C24.8 28.7 25.39 28.02 25.3 27.43L25.27 27.32C25.12 26.72 24.6 26.15 23.92 26.21Z" fill="url(#paint0_linear_1_621)"/>
<defs>
<linearGradient id="paint0_linear_1_621" x1="23.99" y1="5.33" x2="23.99" y2="44.23" gradientUnits="userSpaceOnUse">
<stop stop-color="#1A3C69"/>
<stop offset="1" stop-color="#3376CF"/>
</linearGradient>
</defs>
</svg>
