<svg xmlns="http://www.w3.org/2000/svg" width="48" height="48" fill="none" viewBox="0 0 48 48"><path fill="url(#a)" d="m32 46.2-2.9.3h-8.7q-3 .2-5.8-.7l-2.2-.9q-1.5-.5-3-.7H7.2c-.9-.4-.4-1.3-.1-2L11.9 31l1.4-3.7 1.7-3.2q1.1-1.8 2-3.7v-2.9l-.2-1.7-.5-3.2-.3-1.3a21 21 0 0 0-2-4.7c-.2-.3-.6-.9-.4-1.3v-.1q.3-.4.6-.4c1.5-.5 3-1.5 3.6-3q0-.7.7-1 .8.1 1 1c2 2.7 7 2.6 8.8-.2.3-.3.5-1 1.2-.7l.4.5.2.6a5 5 0 0 0 2.5 2.4c.5.2 1.4.3 1.6.9.2.4-.2 1-.4 1.3l-.4.8a24 24 0 0 0-2.2 7.4l-.2 2.3v3.1c0 .4.5 1.3.7 1.7l2.2 4 1.3 2.6 2.6 6.6 3.4 8.3c.2.6-.4.8-1 .8-2 0-3.2.2-5.1 1l-1 .3zM29.5 3.8c-2 5.5-8.2 6.1-10.8.5l-.3-.5a6 6 0 0 1-2.8 2.1q-.2 0 0 .2l1.2 3 1 3 .2 1.6v.5l.3 1.4v.2h11.4a27 27 0 0 1 2-8.3l.8-1.5a7 7 0 0 1-3-2.2m-9.1.6.5.7c1.8 2 4.2 2.3 6 .2l.7-1q-.6.4-1.4.6a8 8 0 0 1-5.8-.5m-2 12.8v2.1c.5.3.1-.6.6-.9q.9-.3 1 .4h.1v.8h.9q-.1-.6.2-1 .5-.5 1-.1.3.4.2.9l.6.3.3.2q0-.8.2-1.4h.1q.9-.4 1 .4l.1 1q.4-.4 1-.4c-.1-.8.2-1.5 1-1.1l.3.5v.5q.6 0 .8.7l.3-.6c.2-.3-.1-1.2.9-1.2.5 0 .5.6.7 1v-2zm2.2 4.1H18l-.1.4-.7 1.4-2.6 4.7-2.3 5.9L8.9 42l-.3.8q2 0 4 .6l1.5.6q.7.4 1.7.6 2 .4 4.1.4h9l.5-.6c1-1.7.6-3.5 0-5.1l-.8-2-1-3.5q-.5-2-.5-4.1v-8.4h-4.7v.3l.3 1v.4l.2 1.2v1.9a12 12 0 0 1-1.8 6.8l-1 1.8a18 18 0 0 0-1.4 4.3l-.2 1.5-.1.7c-.2.7-1.5 1-1.4-.5a19 19 0 0 1 2.2-7.3l.7-1.3a11 11 0 0 0 1.6-6.2v-1.7c-.1-.8-.3-2.2-.8-2.9zm8 0-.5.1.3 1.7v6l.2 1.3q0 1 .2 1.8l.5 2.4.2.6L31 40q.3.7.3 1.6a5 5 0 0 1-.5 3.3l2.3-.6q1.6-.7 3.4-1.2l2.8-.4L36 35l-2.6-6.7-2.8-5.1-.8-1.6v-.3z"/><defs><linearGradient id="a" x1="24" x2="24" y1=".8" y2="46.5" gradientUnits="userSpaceOnUse"><stop stop-color="#1a3c69"/><stop offset="1" stop-color="#3376cf"/></linearGradient></defs></svg>